<?xml version="1.0" encoding="UTF-8"?>
<svg width="1200pt" height="1200pt" version="1.1" viewBox="0 0 1200 1200" xmlns="http://www.w3.org/2000/svg">
 <path d="m1140 24h-936c-9.5625 0-18.703 3.7969-25.453 10.547l-144 144c-6.75 6.75-10.547 15.891-10.547 25.453v252c0 19.875 16.125 36 36 36h418.87l-254.02 254.02c-14.062 14.062-14.062 36.844 0 50.906l178.18 178.18c14.062 14.062 36.844 14.062 50.906 0l254.06-253.97v418.87c0 19.875 16.125 36 36 36h252c9.5625 0 18.703-3.7969 25.453-10.547l144-144c6.75-6.75 10.547-15.891 10.547-25.453v-936c0-19.875-16.125-36-36-36zm-1044 194.9 72-72v150.19l-72 72zm50.906 201.1 72-72h403.97l-72 72zm281.63 478.78-127.31-127.31 50.906-50.906 127.31 127.26zm552.56 205.22h-150.19l72-72h150.19zm-201.1-50.906v-403.97l72-72v403.97zm324-93.094h-180v-469.82c0-19.875-16.125-36-36-36-9.5625 0-18.703 3.7969-25.453 10.547l-332.16 332.21-127.31-127.26 332.21-332.21c14.062-14.062 14.062-36.844 0-50.906-6.75-6.75-15.938-10.547-25.453-10.547h-469.82v-180h864z"/>
</svg>
